<svg width="22" height="30" viewBox="0 0 22 30" fill="none" xmlns="http://www.w3.org/2000/svg">
<path fill-rule="evenodd" clip-rule="evenodd" d="M22.0001 25.0022L21.9606 10.1254C18.2593 8.63967 12.6206 3.58065 11.4566 0C11.0163 0.550199 9.87029 7.73697 9.86292 7.99967C9.6927 14.1356 15.6779 23.7028 22.0001 25.0022Z" fill="#00C4B4"/>
<path fill-rule="evenodd" clip-rule="evenodd" d="M0.0047979 14.781C0.164295 19.4245 0.114034 19.7113 0.0175309 24.6269C0.00144711 25.4512 -0.00860524 26.2862 0.0101592 27.1105C0.0202115 27.5454 0.034955 27.9737 0.0269131 28.4093C0.0141801 29.0593 -0.0823225 29.0881 0.256777 29.4554C0.495353 29.3421 0.640107 28.9843 0.863939 28.7082L8.17468 21.5489C8.46352 21.3002 8.72421 21.1193 8.98759 20.8492C9.78842 20.0263 11.4109 18.7825 11.9088 17.9327C11.4444 16.7733 10.5243 16.01 9.42922 12.6237C9.1062 11.6245 8.85489 10.5556 8.71751 9.47331C8.5044 7.79926 8.7403 7.558 8.89376 6.03809L0.00546806 14.781H0.0047979Z" fill="#007BFD"/>
</svg>
